<mxfile host="app.diagrams.net" modified="2024-06-05T06:56:55.856Z" agent="Mozilla/5.0 (Macintosh; Intel Mac OS X 10_15_7) AppleWebKit/537.36 (KHTML, like Gecko) Chrome/125.0.0.0 Safari/537.36 Edg/125.0.0.0" etag="H_mOsRW1VyODJgNV9FDY" version="24.4.13" type="github">
  <diagram id="C5RBs43oDa-KdzZeNtuy" name="Page-1">
    <mxGraphModel dx="900" dy="668" grid="1" gridSize="10" guides="1" tooltips="1" connect="1" arrows="1" fold="1" page="1" pageScale="1" pageWidth="827" pageHeight="1169" math="0" shadow="0">
      <root>
        <mxCell id="WIyWlLk6GJQsqaUBKTNV-0" />
        <mxCell id="WIyWlLk6GJQsqaUBKTNV-1" parent="WIyWlLk6GJQsqaUBKTNV-0" />
        <mxCell id="8Imo_MOEr16DwkGvXReS-2" value="" style="edgeStyle=orthogonalEdgeStyle;rounded=0;orthogonalLoop=1;jettySize=auto;html=1;" edge="1" parent="WIyWlLk6GJQsqaUBKTNV-1" source="8Imo_MOEr16DwkGvXReS-0" target="8Imo_MOEr16DwkGvXReS-1">
          <mxGeometry relative="1" as="geometry" />
        </mxCell>
        <mxCell id="8Imo_MOEr16DwkGvXReS-3" value="Trigger charger disabling process" style="edgeLabel;html=1;align=center;verticalAlign=middle;resizable=0;points=[];" vertex="1" connectable="0" parent="8Imo_MOEr16DwkGvXReS-2">
          <mxGeometry x="-0.0824" y="-2" relative="1" as="geometry">
            <mxPoint as="offset" />
          </mxGeometry>
        </mxCell>
        <mxCell id="8Imo_MOEr16DwkGvXReS-0" value="EMS: &quot;NO_CHARGE&quot;&lt;div&gt;OR&lt;/div&gt;&lt;div&gt;&quot;Battery Current High&quot;&lt;/div&gt;" style="rounded=1;whiteSpace=wrap;html=1;" vertex="1" parent="WIyWlLk6GJQsqaUBKTNV-1">
          <mxGeometry x="360" y="40" width="120" height="60" as="geometry" />
        </mxCell>
        <mxCell id="8Imo_MOEr16DwkGvXReS-7" value="" style="edgeStyle=orthogonalEdgeStyle;rounded=0;orthogonalLoop=1;jettySize=auto;html=1;" edge="1" parent="WIyWlLk6GJQsqaUBKTNV-1" source="8Imo_MOEr16DwkGvXReS-1" target="8Imo_MOEr16DwkGvXReS-6">
          <mxGeometry relative="1" as="geometry" />
        </mxCell>
        <mxCell id="8Imo_MOEr16DwkGvXReS-1" value="system battery show" style="whiteSpace=wrap;html=1;rounded=1;" vertex="1" parent="WIyWlLk6GJQsqaUBKTNV-1">
          <mxGeometry x="360" y="180" width="120" height="30" as="geometry" />
        </mxCell>
        <mxCell id="8Imo_MOEr16DwkGvXReS-12" value="" style="edgeStyle=orthogonalEdgeStyle;rounded=0;orthogonalLoop=1;jettySize=auto;html=1;" edge="1" parent="WIyWlLk6GJQsqaUBKTNV-1" source="8Imo_MOEr16DwkGvXReS-6" target="8Imo_MOEr16DwkGvXReS-11">
          <mxGeometry relative="1" as="geometry" />
        </mxCell>
        <mxCell id="8Imo_MOEr16DwkGvXReS-13" value="NO" style="edgeLabel;html=1;align=center;verticalAlign=middle;resizable=0;points=[];" vertex="1" connectable="0" parent="8Imo_MOEr16DwkGvXReS-12">
          <mxGeometry x="-0.2745" y="1" relative="1" as="geometry">
            <mxPoint x="-1" as="offset" />
          </mxGeometry>
        </mxCell>
        <mxCell id="8Imo_MOEr16DwkGvXReS-15" value="" style="edgeStyle=orthogonalEdgeStyle;rounded=0;orthogonalLoop=1;jettySize=auto;html=1;" edge="1" parent="WIyWlLk6GJQsqaUBKTNV-1" source="8Imo_MOEr16DwkGvXReS-6" target="8Imo_MOEr16DwkGvXReS-14">
          <mxGeometry relative="1" as="geometry" />
        </mxCell>
        <mxCell id="8Imo_MOEr16DwkGvXReS-16" value="YES" style="edgeLabel;html=1;align=center;verticalAlign=middle;resizable=0;points=[];" vertex="1" connectable="0" parent="8Imo_MOEr16DwkGvXReS-15">
          <mxGeometry x="-0.1908" y="1" relative="1" as="geometry">
            <mxPoint as="offset" />
          </mxGeometry>
        </mxCell>
        <mxCell id="8Imo_MOEr16DwkGvXReS-6" value="if&lt;div&gt;battery present?&lt;/div&gt;" style="rhombus;whiteSpace=wrap;html=1;rounded=1;" vertex="1" parent="WIyWlLk6GJQsqaUBKTNV-1">
          <mxGeometry x="380" y="265" width="80" height="80" as="geometry" />
        </mxCell>
        <mxCell id="8Imo_MOEr16DwkGvXReS-11" value="ERROR=&quot;Battery no present&quot;&lt;div&gt;PCM_FAIL = true&lt;/div&gt;" style="whiteSpace=wrap;html=1;rounded=1;" vertex="1" parent="WIyWlLk6GJQsqaUBKTNV-1">
          <mxGeometry x="520" y="275" width="170" height="60" as="geometry" />
        </mxCell>
        <mxCell id="8Imo_MOEr16DwkGvXReS-14" value="Get RelativeCharge&lt;div&gt;Set&amp;nbsp;previousRelativeCharge=RelativeCharge&lt;/div&gt;" style="whiteSpace=wrap;html=1;rounded=1;" vertex="1" parent="WIyWlLk6GJQsqaUBKTNV-1">
          <mxGeometry x="360" y="435" width="120" height="60" as="geometry" />
        </mxCell>
      </root>
    </mxGraphModel>
  </diagram>
</mxfile>
